<svg xmlns="http://www.w3.org/2000/svg" xmlns:xlink="http://www.w3.org/1999/xlink" width="18" height="18" viewBox="0 0 18 18">
  <defs>
    <clipPath id="clip-path">
      <rect id="Rectangle_391" data-name="Rectangle 391" width="16" height="12.389" transform="translate(0 0)" fill="#673aaa"/>
    </clipPath>
  </defs>
  <g id="Body_Type" data-name="Body Type" transform="translate(5022 625)">
    <rect id="Rectangle_816" data-name="Rectangle 816" width="18" height="18" transform="translate(-5022 -625)" fill="none"/>
    <g id="Group_647" data-name="Group 647" transform="translate(1 -14)">
      <g id="Group_372" data-name="Group 372" transform="translate(-5022 -608)">
        <g id="Group_371" data-name="Group 371" clip-path="url(#clip-path)">
          <path id="Path_482" data-name="Path 482" d="M15.816,5.2a3.2,3.2,0,0,0-.671-.854.676.676,0,0,1-.155-.247q-.568-1.54-1.143-3.078A1.443,1.443,0,0,0,12.4,0Q8.109,0,3.822,0A1.436,1.436,0,0,0,2.373,1.015c-.3.8-.618,1.6-.887,2.41a2.692,2.692,0,0,1-.853,1.3A1.737,1.737,0,0,0,.008,6.1q-.014,2.421,0,4.842A1.392,1.392,0,0,0,1.28,12.355a5.375,5.375,0,0,0,1.216,0,1.385,1.385,0,0,0,1.221-1.066,3.1,3.1,0,0,0,.04-.871c0-.144.041-.168.173-.168q2.9.008,5.8,0c.791,0,1.583,0,2.374,0,.119,0,.149.032.146.147a6.842,6.842,0,0,0,.009.687,1.4,1.4,0,0,0,1.2,1.266,6.859,6.859,0,0,0,1.216.013,1.373,1.373,0,0,0,1.046-.572,1.7,1.7,0,0,0,.281-.7V5.781a5.826,5.826,0,0,0-.184-.585m-2.19,6.487a.712.712,0,0,1-.689-.658c-.017-.218,0-.437-.014-.655-.005-.1.03-.121.124-.12.468.005.937,0,1.4,0a1.575,1.575,0,0,0,.86-.185c0,.319.01.626,0,.932a.721.721,0,0,1-.7.685q-.492.013-.984,0M3.081,10.39c-.01.212,0,.427-.015.639a.708.708,0,0,1-.677.653c-.337.012-.676.012-1.014,0A.711.711,0,0,1,.7,11.026c-.017-.315,0-.632,0-.968a1.846,1.846,0,0,0,1.05.2c.4,0,.8,0,1.2,0,.112,0,.141.034.136.141M1.519,9.568a.748.748,0,0,1-.81-.563,1.062,1.062,0,0,1-.02-.264c0-.827,0-1.656,0-2.483a1.424,1.424,0,0,1,.439-1.077c.462-.457.457-.463,1.1-.463q6.023,0,12.044,0a.536.536,0,0,1,.494.211c.113.155.266.277.365.445a1.322,1.322,0,0,1,.183.684q0,1.391,0,2.78a.723.723,0,0,1-.7.73c-.177.008-.354,0-.531,0H1.519m.5-5.658C2.364,3.007,2.7,2.1,3.034,1.2a.726.726,0,0,1,.74-.512h8.668a.733.733,0,0,1,.74.491q.521,1.384,1.031,2.772a.557.557,0,0,1,.018.083c-.231,0-.455-.007-.678,0-.1.005-.115-.045-.131-.123a2.307,2.307,0,0,0-.834-1.368,2.342,2.342,0,0,0-3.442.591,2.267,2.267,0,0,0-.311.775c-.017.089-.045.125-.146.125q-3.288,0-6.576,0c-.1,0-.133-.009-.09-.124m10.716.116H9.511a1.649,1.649,0,0,1,3.228,0" fill="#673aaa"/>
          <path id="Path_483" data-name="Path 483" d="M4.424,6.087H2.035c-.3,0-.426.127-.427.427,0,.536,0,1.072,0,1.609,0,.29.13.421.418.422q1.21,0,2.42,0c.283,0,.407-.13.407-.413,0-.542,0-1.083,0-1.625,0-.3-.12-.419-.43-.42m-.25,1.652c0,.092-.02.127-.12.126-.55,0-1.1,0-1.652,0-.09,0-.114-.03-.113-.117,0-.285.006-.571,0-.856,0-.1.024-.127.121-.124.275.006.551,0,.826,0s.551,0,.825,0c.091,0,.114.027.113.114,0,.286,0,.571,0,.857" fill="#673aaa"/>
          <path id="Path_484" data-name="Path 484" d="M11.54,8.544q1.227.006,2.452,0a.358.358,0,0,0,.4-.406c0-.547,0-1.093,0-1.64,0-.288-.133-.41-.427-.412h-1.2c-.406,0-.812,0-1.218,0-.268,0-.4.125-.4.389q0,.836,0,1.67a.348.348,0,0,0,.39.4m.289-1.672c0-.083.026-.106.107-.1.28,0,.56,0,.841,0s.54,0,.81,0c.09,0,.13.014.127.117-.007.291-.005.582,0,.873,0,.082-.026.106-.107.106q-.833,0-1.667,0c-.078,0-.111-.019-.11-.1,0-.3,0-.592,0-.888" fill="#673aaa"/>
          <path id="Path_485" data-name="Path 485" d="M6.436,7.146H9.559a.387.387,0,0,0,.4-.208.338.338,0,0,0-.339-.474c-.537-.005-1.072,0-1.609,0H7.436c-.354,0-.708,0-1.062,0a.337.337,0,0,0-.335.467.379.379,0,0,0,.4.215" fill="#673aaa"/>
          <path id="Path_486" data-name="Path 486" d="M9.731,8.186a.3.3,0,0,0,.24-.219c.078-.239-.086-.442-.367-.444-.53,0-1.061,0-1.592,0-.511,0-1.021.009-1.531,0-.357-.009-.455.157-.469.337-.017.222.165.35.473.35H9.53a1.045,1.045,0,0,0,.2-.019" fill="#673aaa"/>
        </g>
      </g>
    </g>
  </g>
</svg>
