<svg xmlns="http://www.w3.org/2000/svg" xmlns:xlink="http://www.w3.org/1999/xlink" width="18" height="18" viewBox="0 0 18 18">
  <defs>
    <clipPath id="clip-path">
      <rect id="Rectangle_390" data-name="Rectangle 390" width="16" height="14.387" transform="translate(0 0)" fill="#673aaa"/>
    </clipPath>
  </defs>
  <g id="Fuel_Type" data-name="Fuel Type" transform="translate(5022 663)">
    <rect id="Rectangle_815" data-name="Rectangle 815" width="18" height="18" transform="translate(-5022 -663)" fill="none"/>
    <g id="Group_370" data-name="Group 370" transform="translate(-5021 -661)">
      <g id="Group_369" data-name="Group 369" clip-path="url(#clip-path)">
        <path id="Path_479" data-name="Path 479" d="M15.971,5.615A3,3,0,0,0,14.938,3.9a.721.721,0,0,0-1.1,0,3.369,3.369,0,0,0-.946,1.377,1.68,1.68,0,0,0,.12,1.436,1.649,1.649,0,0,0,1.181.779,1.363,1.363,0,0,0,.2.015,1.624,1.624,0,0,0,.982-.351,1.508,1.508,0,0,0,.588-.958L16,6.186V5.635ZM14.763,6.648A.764.764,0,0,1,13.9,6.57a.794.794,0,0,1-.332-.838,2.369,2.369,0,0,1,.8-1.272c.012-.011.02-.018.027-.018l.006,0a2.383,2.383,0,0,1,.843,1.382.878.878,0,0,1-.479.822" fill="#673aaa"/>
        <path id="Path_480" data-name="Path 480" d="M14.528,2.564a.4.4,0,0,0,.313-.577c-.156-.539-.311-1.078-.469-1.616-.1-.342-.264-.432-.606-.333l-1,.294c-.782.23-1.591.468-2.389.687a4.458,4.458,0,0,0-1.455.675c-.225.163-.463.317-.694.466-.146.094-.292.189-.436.286-.025.017-.037.021-.038.023a.121.121,0,0,1-.023-.032,4.061,4.061,0,0,0-.233-.354A1.009,1.009,0,0,0,6.13,1.811c-.437.275-.89.573-1.383.911a1.014,1.014,0,0,0-.288,1.384c.077.126.151.237.225.34.013.018.017.027.019.029a.2.2,0,0,1-.029.022c-.12.074-.238.153-.355.231-.084.057-.168.113-.253.167a1.427,1.427,0,0,0-.406.395L.1,10.442a.388.388,0,0,0,.113.613l.222.153c.3.207.606.422.914.626a.37.37,0,0,1,.04.032.17.17,0,0,1-.029.051c-.371.529-.737,1.061-1.1,1.593l-.138.2a.88.88,0,0,0-.091.159.349.349,0,0,0,.117.429.361.361,0,0,0,.235.089.383.383,0,0,0,.226-.077.625.625,0,0,0,.138-.16l.434-.628q.7-1.014,1.4-2.03c.037-.054.051-.058.053-.059s.015,0,.065.033c.683.483,1.351.953,2.029,1.393a1.731,1.731,0,0,0,.962.288,1.54,1.54,0,0,0,1.272-.69l1.258-1.823L9.707,8.475a1.806,1.806,0,0,0,.266-1.589A5.663,5.663,0,0,1,9.8,4.692a.749.749,0,0,1,.419-.7,2.342,2.342,0,0,0,.3-.17,1.608,1.608,0,0,1,.436-.219c.916-.257,1.845-.53,2.743-.793Zm-12.37,8.2-.071.1c-.08.114-.16.229-.235.346l-.02.032a.13.13,0,0,1-.028-.017c-.3-.216-.608-.423-.866-.6l-.022-.014c0-.005.008-.013.015-.025Q2.62,8.147,4.3,5.7a.684.684,0,0,1,.2-.178l.612-.4Q6.74,4.05,8.368,2.974a.163.163,0,0,1,.055-.028s.013.007.04.05c.218.345.455.7.646.982a.147.147,0,0,1,.027.13,6.071,6.071,0,0,0,.1,3,1.029,1.029,0,0,1-.14.9q-.638.93-1.278,1.858l-.1.14-.524.759q-.434.624-.864,1.251a.789.789,0,0,1-.647.369.963.963,0,0,1-.545-.167c-.569-.368-1.134-.763-1.681-1.144q-.312-.219-.625-.435a.58.58,0,0,0-.319-.128.256.256,0,0,0-.055.005.5.5,0,0,0-.306.246M14.021,1.912a.168.168,0,0,1-.057.023q-1.727.5-3.452,1a1.586,1.586,0,0,0-.476.263c-.062.044-.124.089-.189.129l-.017.01a.55.55,0,0,1-.157.083.629.629,0,0,1-.113-.147l-.5-.757.211-.139c.2-.134.408-.268.613-.4a1.084,1.084,0,0,1,.328-.117c.045-.011.09-.022.135-.035L11.6,1.467q1.026-.3,2.052-.6a.56.56,0,0,1,.057-.013s.009.01.021.052c.092.353.182.665.275.952.012.039.011.052.013.052m-7.378.515h.013a.246.246,0,0,1,.2.084.39.39,0,0,1,.031.04,1.431,1.431,0,0,0,.093.124c.06.076.128.161.124.219,0,.039-.107.092-.176.127A1.121,1.121,0,0,0,6.8,3.1l-.6.4c-.268.176-.535.351-.8.531a.191.191,0,0,1-.054.029s-.012-.009-.033-.048A1.843,1.843,0,0,0,5.2,3.835c-.026-.039-.053-.077-.077-.117a.251.251,0,0,1,.073-.374c.319-.215.64-.425.962-.636l.364-.239a.228.228,0,0,1,.125-.042" fill="#673aaa"/>
        <path id="Path_481" data-name="Path 481" d="M3.162,10.236l.083.057q.929.646,1.863,1.287a.794.794,0,0,0,.448.154.734.734,0,0,0,.593-.348l.42-.593L6.7,10.6A3.87,3.87,0,0,0,7.382,9.25a4.846,4.846,0,0,0,.093-1.069V7.762c0-.208,0-.38,0-.551A1.2,1.2,0,0,0,6.438,5.987a1.267,1.267,0,0,0-1.276.594Q4.3,7.828,3.436,9.079l-.382.553a.389.389,0,0,0,.108.6m1.783.3Q5.819,9.27,6.688,8.011a5.788,5.788,0,0,1-.016.856,1.829,1.829,0,0,1-.307.843c-.18.269-.363.536-.545.8q-.141.2-.281.411l-.013.018,0,0c-.156-.112-.314-.221-.474-.332ZM3.869,9.8a.111.111,0,0,1,.015-.025q.58-.836,1.159-1.674l.765-1.106a.567.567,0,0,1,.464-.257l.021,0a.912.912,0,0,1,.1.023c.13.039.148.063.15.069s0,.034-.07.14l-.5.723c-.53.766-1.078,1.559-1.611,2.341-.039.057-.056.06-.057.06s-.018,0-.068-.041a4.066,4.066,0,0,0-.349-.242L3.869,9.8" fill="#673aaa"/>
      </g>
    </g>
  </g>
</svg>
