<svg xmlns="http://www.w3.org/2000/svg" xmlns:xlink="http://www.w3.org/1999/xlink" width="18" height="18" viewBox="0 0 18 18">
  <defs>
    <clipPath id="clip-path">
      <rect id="Rectangle_386" data-name="Rectangle 386" width="15.94" height="16" fill="#673aaa"/>
    </clipPath>
  </defs>
  <g id="KMs_Driven" data-name="KMs Driven" transform="translate(5022 798)">
    <rect id="Rectangle_812" data-name="Rectangle 812" width="18" height="18" transform="translate(-5022 -798)" fill="none"/>
    <g id="Group_362" data-name="Group 362" transform="translate(-5021 -797)">
      <g id="Group_361" data-name="Group 361" clip-path="url(#clip-path)">
        <path id="Path_467" data-name="Path 467" d="M15.9,4.861a4.8,4.8,0,0,0-1.757-3A8.735,8.735,0,0,0,11.33.375c-.4-.135-.8-.251-1.2-.375H9.911A.772.772,0,0,0,9.7.172a.4.4,0,0,0,.287.6A12.792,12.792,0,0,1,12,1.471a6.288,6.288,0,0,1,2.193,1.513,3.425,3.425,0,0,1,.871,3.205,8.187,8.187,0,0,1-.852,2.035,39.087,39.087,0,0,1-2.925,4.384c-.683.92-1.389,1.82-2.1,2.72a.385.385,0,0,0,.036.59c.184.141.377.1.548-.12l.54-.688a64.721,64.721,0,0,0,3.9-5.384,14.091,14.091,0,0,0,1.433-2.8A4.137,4.137,0,0,0,15.9,4.861" fill="#673aaa"/>
        <path id="Path_468" data-name="Path 468" d="M8.273,3.753a3.3,3.3,0,0,0,1.02-1.017,1.358,1.358,0,0,0-.232-1.7A2.167,2.167,0,0,0,8.424.621a7.539,7.539,0,0,0-1.878-.5A5.143,5.143,0,0,1,5.786,0H5.692c-.005.008-.008.021-.015.025-.235.113-.317.225-.293.4s.162.3.406.343c.031,0,.062.006.093.01a11.418,11.418,0,0,1,1.58.283A2.622,2.622,0,0,1,8.47,1.5a.628.628,0,0,1,.146.876,1.749,1.749,0,0,1-.288.348,5.447,5.447,0,0,1-1.381.927,20.978,20.978,0,0,1-3.7,1.375c-.949.273-1.908.507-2.872.72A.393.393,0,1,0,.5,6.52,40.271,40.271,0,0,0,5.421,5.139,12.316,12.316,0,0,0,8.273,3.753" fill="#673aaa"/>
        <path id="Path_469" data-name="Path 469" d="M5.947,8.7c-.1.053-.2.115-.3.171-.321.18-.643.357-.963.54a.382.382,0,0,0-.2.434.374.374,0,0,0,.355.294A.343.343,0,0,0,5.01,10.1c.438-.247.879-.49,1.315-.742a.37.37,0,0,0,.149-.522A.378.378,0,0,0,5.947,8.7" fill="#673aaa"/>
        <path id="Path_470" data-name="Path 470" d="M10.16,6.444a.363.363,0,0,0-.2-.321.358.358,0,0,0-.409.037c-.385.308-.769.617-1.15.931a.378.378,0,1,0,.469.593q.592-.443,1.148-.934a.408.408,0,0,0,.144-.306" fill="#673aaa"/>
        <path id="Path_471" data-name="Path 471" d="M2.075,10.7c-.224.082-.444.176-.659.28a.364.364,0,0,0-.178.426.4.4,0,0,0,.42.284,2.589,2.589,0,0,0,.8-.367.344.344,0,0,0,.054-.456.369.369,0,0,0-.433-.167" fill="#673aaa"/>
        <path id="Path_472" data-name="Path 472" d="M11.57,4.535A.371.371,0,0,0,12,4.342a3.091,3.091,0,0,0,.236-.64.377.377,0,0,0-.254-.48.371.371,0,0,0-.479.277,3.042,3.042,0,0,1-.176.481.364.364,0,0,0-.046.186.37.37,0,0,0,.286.369" fill="#673aaa"/>
      </g>
    </g>
  </g>
</svg>
