<svg xmlns="http://www.w3.org/2000/svg" width="140" height="100.789" viewBox="0 0 140 100.789">
  <g id="Group_185" data-name="Group 185" transform="translate(-178.257 -4600)">
    <path id="Path_343" data-name="Path 343" d="M90.984,33.135V49.02c0,.074,0,.147-.006.22v-.253A4.279,4.279,0,0,1,86.7,53.268h.634c-.062,0-.117,0-.179,0l-47.175.006c-.185-.006-.37-.006-.561-.011H37.686a4.279,4.279,0,0,1-4.279-4.281V46.094h.067a10.549,10.549,0,0,1,.248-1.977,12.012,12.012,0,0,1,1.3-3.309L48.949,15.974l5.68,5.528-2.882,3.151a1.675,1.675,0,0,0-2.512.748,1.7,1.7,0,0,0,.472,1.887l5.651,5.168a1.82,1.82,0,0,0,2.185.163,1.667,1.667,0,0,0,.13-2.572l-.079-.074,2.7-2.948,3.718,3.612.011,0,8.595,8.353L49.5,38.971c-8.8,0-8.8,7.095-8.8,7.106s32.316.062,42.989.017V32.921c0-4.2,7.286-4.41,7.3.213" transform="translate(186.062 4603.731)" fill="#149b9e"/>
    <path id="Path_344" data-name="Path 344" d="M90.984,4.281V7.174h-.22a12.224,12.224,0,0,1-.982,2.691L75.11,39.714,62.223,28.643l2.943-3.225.079.073a1.63,1.63,0,0,0,1.73.337,1.681,1.681,0,0,0,.523-2.8L61.779,17.8a1.663,1.663,0,0,0-2.431,2.264l-4.719,5.169-5.68-5.528,3.011-5.365,22.407,0c9.319,0,9.325-7.162,9.325-7.162s-41.984.028-43,0V21.385c.017,3.871-7.257,3.988-7.275,0,0,0,.011-7.139-.011-14.211,0-.972,0-1.943,0-2.893A4.277,4.277,0,0,1,37.686,0H40.7l43,.006V0H86.7a4.28,4.28,0,0,1,4.281,4.281" transform="translate(186.062 4600)" fill="#673aaa"/>
    <path id="Path_345" data-name="Path 345" d="M1.4,57.794H19.224a3.564,3.564,0,0,1,2.53.817,3.457,3.457,0,0,1,.868,2.619,3.939,3.939,0,0,1-.4,1.654,8.915,8.915,0,0,1-.963,1.614q-.566.753-1.02,1.341Q19.11,67.221,17.43,69.19t-3.589,4.147q-1.908,2.178-3.719,4.252T6.874,81.255h15.6v5.321H0V81.255q.718-.8,2.1-2.345t3.135-3.52q1.756-1.969,3.644-4.149t3.7-4.273q1.812-2.093,3.248-3.854H3.323a2.51,2.51,0,0,1-2-.67,2.908,2.908,0,0,1-.567-1.927A5.627,5.627,0,0,1,1,58.82a5.673,5.673,0,0,1,.4-1.026" transform="translate(178.257 4613.501)" fill="#fff"/>
    <path id="Path_346" data-name="Path 346" d="M47.368,72.3a17.761,17.761,0,0,1-.982,5.99,14.729,14.729,0,0,1-2.776,4.819,12.525,12.525,0,0,1-4.267,3.184,13.069,13.069,0,0,1-5.5,1.131,13.063,13.063,0,0,1-5.495-1.131,12.513,12.513,0,0,1-4.267-3.184,14.686,14.686,0,0,1-2.776-4.819,17.73,17.73,0,0,1-.982-5.99,17.115,17.115,0,0,1,1.7-7.729,13.363,13.363,0,0,1,4.74-5.384,12.725,12.725,0,0,1,7.081-1.97,12.732,12.732,0,0,1,7.082,1.97,13.372,13.372,0,0,1,4.74,5.384,17.115,17.115,0,0,1,1.7,7.729m-5.665,0a13.165,13.165,0,0,0-.944-5.111,8.274,8.274,0,0,0-2.7-3.56,6.824,6.824,0,0,0-4.173-1.3,6.966,6.966,0,0,0-4.23,1.3,8.205,8.205,0,0,0-2.719,3.56,14.294,14.294,0,0,0,0,10.222,8.354,8.354,0,0,0,2.719,3.582,6.891,6.891,0,0,0,4.23,1.32,6.752,6.752,0,0,0,4.173-1.32,8.425,8.425,0,0,0,2.7-3.582A13.16,13.16,0,0,0,41.7,72.3" transform="translate(183.006 4613.366)" fill="#fff"/>
    <path id="Path_347" data-name="Path 347" d="M69.948,72.163a16.3,16.3,0,0,1-1.68,7.625,12.08,12.08,0,0,1-4.778,5.006,14.438,14.438,0,0,1-7.326,1.781h-9.63V61.061q0-3.266,3.058-3.268h6.269a18.583,18.583,0,0,1,4.835.546,11.459,11.459,0,0,1,6.817,4.837,15.886,15.886,0,0,1,2.435,8.987m-5.665,0a11.664,11.664,0,0,0-1.3-5.634,6.781,6.781,0,0,0-4.21-3.29,8,8,0,0,0-1.436-.313,12.306,12.306,0,0,0-1.623-.1h-3.7V81.548h3.928a8.014,8.014,0,0,0,4.608-1.257A7.838,7.838,0,0,0,63.34,76.9a11.593,11.593,0,0,0,.944-4.735" transform="translate(189.128 4613.501)" fill="#fff"/>
    <path id="Path_348" data-name="Path 348" d="M86.606,69.021V60.475A2.454,2.454,0,0,1,87.4,58.4a3.328,3.328,0,0,1,2.077-.608,5.184,5.184,0,0,1,1.68.252q.736.252.925.336v28.2H86.606V74.258H75.276V86.576H69.8v-26.1a2.487,2.487,0,0,1,.773-2.074,3.309,3.309,0,0,1,2.1-.608,5.192,5.192,0,0,1,1.681.252c.491.168.8.28.925.336V69.021Z" transform="translate(194.564 4613.501)" fill="#fff"/>
    <path id="Path_349" data-name="Path 349" d="M96.322,86.648H90.771q1.02-2.933,2.171-6.118t2.3-6.242q1.151-3.057,2.19-5.74t1.832-4.671q.794-1.989,1.246-3a6.1,6.1,0,0,1,1.85-2.681,4.177,4.177,0,0,1,2.455-.713,4.452,4.452,0,0,1,2.248.461,4.913,4.913,0,0,1,1.077.8q.679,1.3,1.6,3.478t1.982,4.86q1.057,2.681,2.114,5.551t2.021,5.571q.962,2.7,1.718,4.9t1.209,3.54h-5.817q-.3-.922-.85-2.451t-1.3-3.666H98.475q-.757,2.1-1.284,3.624t-.868,2.493m8.347-23.169q-.228.546-.907,2.388t-1.586,4.357q-.907,2.513-1.85,5.111h8.649q-.907-2.6-1.812-5.09t-1.586-4.336q-.681-1.843-.907-2.43" transform="translate(199.463 4613.43)" fill="#fff"/>
  </g>
</svg>
