<svg xmlns="http://www.w3.org/2000/svg" xmlns:xlink="http://www.w3.org/1999/xlink" width="18" height="18" viewBox="0 0 18 18">
  <defs>
    <clipPath id="clip-path">
      <rect id="Rectangle_382" data-name="Rectangle 382" width="16" height="12.389" transform="translate(0 0)" fill="#673aaa"/>
    </clipPath>
  </defs>
  <g id="Make" transform="translate(5022 940)">
    <rect id="Rectangle_809" data-name="Rectangle 809" width="18" height="18" transform="translate(-5022 -940)" fill="none"/>
    <g id="Group_347" data-name="Group 347" transform="translate(-5021 -937)">
      <g id="Group_346" data-name="Group 346" clip-path="url(#clip-path)">
        <path id="Path_453" data-name="Path 453" d="M16,6.023a1.984,1.984,0,0,0-.266-.982,3.293,3.293,0,0,0-.562-.667.907.907,0,0,1-.2-.326q-.56-1.519-1.125-3.036A1.442,1.442,0,0,0,12.391,0Q8.1,0,3.814,0A1.436,1.436,0,0,0,2.373,1c-.3.817-.625,1.629-.9,2.455A2.5,2.5,0,0,1,.646,4.7a1.779,1.779,0,0,0-.6,1.016c-.013.052.01.117-.046.157v5.218a.272.272,0,0,1,.022.056,1.4,1.4,0,0,0,1.212,1.2,5.741,5.741,0,0,0,1.2.01,1.4,1.4,0,0,0,1.321-1.418c.007-.187.007-.375,0-.562,0-.1.025-.132.13-.131q4.116,0,8.233,0c.111,0,.125.042.124.136,0,.239-.006.48.012.718a1.41,1.41,0,0,0,1.19,1.245,5.955,5.955,0,0,0,1.216.014A1.406,1.406,0,0,0,16,10.912C16,9.283,16,7.653,16,6.023m-2.365,5.663a.714.714,0,0,1-.7-.666c-.017-.217-.005-.437-.013-.655,0-.091.028-.114.115-.113.442,0,.885,0,1.327,0a1.692,1.692,0,0,0,.941-.192c0,.346.023.679-.006,1.006a.7.7,0,0,1-.7.617c-.323.008-.646.009-.968,0m-10.57-.652a.706.706,0,0,1-.665.649c-.342.014-.687.013-1.029,0a.709.709,0,0,1-.674-.643c-.02-.319,0-.641,0-.981a1.727,1.727,0,0,0,.973.195c.427-.005.854,0,1.281,0,.1,0,.139.018.133.127-.012.218,0,.437-.015.655M1.515,9.57a.746.746,0,0,1-.809-.564,1.013,1.013,0,0,1-.021-.263c0-.828,0-1.656,0-2.484a1.428,1.428,0,0,1,.44-1.078c.462-.457.456-.462,1.1-.462q6.03,0,12.061,0a.515.515,0,0,1,.467.2c.106.141.246.255.344.4a1.328,1.328,0,0,1,.216.753q0,1.375,0,2.75a.718.718,0,0,1-.719.744c-.505.011-1.01.005-1.516.005H1.515m.5-5.659c.341-.9.673-1.809,1.012-2.713A.725.725,0,0,1,3.77.687h8.67a.731.731,0,0,1,.74.49c.347.923.688,1.848,1.031,2.772a.6.6,0,0,1,.018.084c-.242,0-.476-.005-.709,0-.1,0-.087-.069-.1-.122a2.34,2.34,0,0,0-4.278-.778,2.269,2.269,0,0,0-.312.775c-.016.089-.044.126-.146.126Q5.4,4.03,2.11,4.035c-.1,0-.134-.008-.091-.124m10.719.118H9.511a1.647,1.647,0,0,1,3.227,0" fill="#673aaa"/>
        <path id="Path_454" data-name="Path 454" d="M4.421,6.088c-.391,0-.781,0-1.172,0s-.812,0-1.218,0c-.3,0-.425.126-.427.427q0,.8,0,1.609c0,.29.13.421.418.422q1.21,0,2.421,0c.282,0,.406-.13.407-.414,0-.541,0-1.083,0-1.624,0-.3-.12-.419-.43-.42m-.25,1.644c0,.1-.019.136-.128.135-.545-.006-1.09-.005-1.636,0-.1,0-.123-.03-.121-.124,0-.281.006-.561,0-.842,0-.1.023-.135.129-.132.276.008.551,0,.826,0s.541,0,.81,0c.1,0,.124.028.121.123-.006.28-.006.561,0,.841" fill="#673aaa"/>
        <path id="Path_455" data-name="Path 455" d="M11.576,8.547q1.194,0,2.389,0c.3,0,.427-.129.428-.429q0-.8,0-1.608c0-.3-.13-.421-.432-.422H12.774c-.406,0-.812,0-1.219,0-.285,0-.407.123-.408.41,0,.541,0,1.083,0,1.624,0,.3.125.423.429.424m.251-1.673c0-.083.026-.105.106-.1q.834,0,1.668,0c.092,0,.112.033.111.118-.005.285-.006.571,0,.857,0,.1-.027.125-.123.122-.275-.005-.55,0-.825,0s-.541,0-.811,0c-.091,0-.129-.019-.126-.119.006-.291.005-.582,0-.873" fill="#673aaa"/>
        <path id="Path_456" data-name="Path 456" d="M6.437,7.148H9.561a.385.385,0,0,0,.4-.211.339.339,0,0,0-.345-.471c-.536-.005-1.072,0-1.609,0H7.3c-.313,0-.625-.005-.937,0a.337.337,0,0,0-.33.47.384.384,0,0,0,.4.212" fill="#673aaa"/>
        <path id="Path_457" data-name="Path 457" d="M9.724,8.188a.3.3,0,0,0,.246-.23.335.335,0,0,0-.362-.434c-.537,0-1.073,0-1.608,0H7.141c-.266,0-.532-.007-.8.005a.332.332,0,0,0-.3.475.391.391,0,0,0,.4.2H9.554a.9.9,0,0,0,.17-.018" fill="#673aaa"/>
      </g>
    </g>
  </g>
</svg>
