<svg xmlns="http://www.w3.org/2000/svg" xmlns:xlink="http://www.w3.org/1999/xlink" width="18" height="18" viewBox="0 0 18 18">
  <defs>
    <clipPath id="clip-path">
      <rect id="Rectangle_393" data-name="Rectangle 393" width="16" height="13.764" transform="translate(0 0)" fill="#673aaa"/>
    </clipPath>
  </defs>
  <g id="Mileage" transform="translate(5022 525)">
    <rect id="Rectangle_818" data-name="Rectangle 818" width="18" height="18" transform="translate(-5022 -525)" fill="none"/>
    <g id="Group_376" data-name="Group 376" transform="translate(-5021 -523)">
      <g id="Group_375" data-name="Group 375" clip-path="url(#clip-path)">
        <path id="Path_496" data-name="Path 496" d="M16,7.538h0V7.381a4.585,4.585,0,0,1-.1-.651A7.821,7.821,0,0,0,13.394,2.1,7.793,7.793,0,0,0,6.453.155,7.488,7.488,0,0,0,2.126,2.588a7.825,7.825,0,0,0-1.74,7.84A7.53,7.53,0,0,0,2.3,13.6a.4.4,0,0,0,.593.053c.417-.407.827-.822,1.238-1.236a.372.372,0,0,0,.109-.327.358.358,0,0,0-.246-.314.393.393,0,0,0-.431.1c-.248.246-.494.492-.741.739-.191.191-.191.192-.36-.013A7.1,7.1,0,0,1,.813,8.523c-.008-.107.013-.142.128-.14.379.007.759,0,1.14,0a.456.456,0,0,0,.213-.032A.391.391,0,0,0,2.129,7.6c-.406,0-.812,0-1.218,0-.078,0-.112-.014-.1-.1.021-.16.023-.322.047-.481a7.231,7.231,0,0,1,1.7-3.75c.058-.067.086-.075.151-.008.28.287.566.568.849.852a.4.4,0,0,0,.431.1A.355.355,0,0,0,4.241,3.9a.416.416,0,0,0-.14-.363c-.265-.264-.524-.536-.8-.792-.11-.1-.082-.145.016-.228A7.218,7.218,0,0,1,7.5.8c.091-.007.105.02.1.1,0,.224,0,.448,0,.672,0,.2,0,.406.011.608a.366.366,0,0,0,.26.322.362.362,0,0,0,.379-.077A.447.447,0,0,0,8.4,2.06q0-.577,0-1.156c0-.053-.017-.117.083-.1.185.024.373.03.558.059a7.266,7.266,0,0,1,3.678,1.686c.077.067.084.1.008.174-.277.267-.546.544-.82.814a.421.421,0,0,0-.143.362.355.355,0,0,0,.243.316.4.4,0,0,0,.432-.095c.269-.269.542-.533.8-.809.094-.1.144-.117.239,0,.182.234.369.465.532.712a7.168,7.168,0,0,1,1.18,3.457c.009.116-.034.123-.126.122q-.57,0-1.14,0a.412.412,0,0,0-.455.389.4.4,0,0,0,.447.4c.38,0,.76,0,1.14,0,.107,0,.143.019.134.136a7.611,7.611,0,0,1-.139.987,7.211,7.211,0,0,1-1.616,3.227c-.062.072-.092.049-.143,0-.267-.271-.537-.538-.806-.807a.548.548,0,0,0-.2-.146.4.4,0,0,0-.469.149.4.4,0,0,0,.071.511c.381.385.765.767,1.148,1.15a.417.417,0,0,0,.685-.006,7.913,7.913,0,0,0,2.194-4.438A2.067,2.067,0,0,1,16,8.631V8.475h0V8.319h0v-.4h0V7.538Z" fill="#673aaa"/>
        <path id="Path_497" data-name="Path 497" d="M9.887,3.53a.4.4,0,0,0-.489.033.549.549,0,0,0-.141.24c-.326.813-.658,1.626-.973,2.443-.078.2-.159.351-.408.294a.27.27,0,0,0-.093.007A1.452,1.452,0,0,0,6.546,8.1,1.383,1.383,0,0,0,7.99,9.456a1.455,1.455,0,0,0,1.378-.941A1.542,1.542,0,0,0,8.99,6.881a.139.139,0,0,1-.045-.192c.123-.292.239-.587.357-.88.239-.6.48-1.194.716-1.792a.406.406,0,0,0-.131-.487M7.976,8.665a.6.6,0,0,1-.64-.678.649.649,0,0,1,.691-.664c.419.025.623.222.642.68a.652.652,0,0,1-.693.662" fill="#673aaa"/>
      </g>
    </g>
  </g>
</svg>
