<svg xmlns="http://www.w3.org/2000/svg" xmlns:xlink="http://www.w3.org/1999/xlink" width="18" height="18" viewBox="0 0 18 18">
  <defs>
    <clipPath id="clip-path">
      <rect id="Rectangle_383" data-name="Rectangle 383" width="15.997" height="16" fill="#673aaa"/>
    </clipPath>
  </defs>
  <g id="Model" transform="translate(5022 892)">
    <rect id="Rectangle_810" data-name="Rectangle 810" width="18" height="18" transform="translate(-5022 -892)" fill="none"/>
    <g id="Group_349" data-name="Group 349" transform="translate(-5021 -891)">
      <g id="Group_348" data-name="Group 348" clip-path="url(#clip-path)">
        <path id="Path_458" data-name="Path 458" d="M9.629,4.459a.6.6,0,0,0,.123-.118c.571-.57,1.144-1.137,1.708-1.713a.612.612,0,0,1,.48-.2c1.211.008,2.423.005,3.635,0,.27,0,.361-.066.421-.294V.265C15.939.051,15.877,0,15.661,0Q8.023,0,.387,0C.1,0,0,.095,0,.382,0,.939,0,1.5,0,2.052a.34.34,0,0,0,.331.376,1.764,1.764,0,0,0,.218.006c1.192,0,2.382,0,3.573,0a.5.5,0,0,1,.387.159c.544.552,1.094,1.1,1.642,1.645a2.221,2.221,0,0,0,.294.28.3.3,0,0,1,.141.289c-.005.26,0,.52,0,.78a.57.57,0,0,0,.319.561c.193.1.374.227.564.332a.314.314,0,0,1,.18.314c-.007.421,0,.842,0,1.264,0,.208-.01.216-.223.216-.718,0-1.436.011-2.153-.005a.638.638,0,0,0-.614.336c-.405.648-.831,1.283-1.244,1.926a.53.53,0,0,1-.352.253c-.8.182-1.6.392-2.394.588a3.042,3.042,0,0,0-.422.11A.322.322,0,0,0,0,11.834v1.123c0,.443,0,.885,0,1.327a.344.344,0,0,0,.357.384c.062.006.124,0,.187,0,.421,0,.842,0,1.263,0a.223.223,0,0,1,.25.174,1.7,1.7,0,0,0,.706.923A1.56,1.56,0,0,0,3.511,16h.406a1.547,1.547,0,0,0,.581-.15,1.952,1.952,0,0,0,.594-.521,1.88,1.88,0,0,0,.3-.658c.929,0,4.173,0,5.028,0a.22.22,0,0,1,.248.175,1.691,1.691,0,0,0,1.012,1.079,3.365,3.365,0,0,0,.441.077h.343a.2.2,0,0,1,.1-.021.728.728,0,0,0,.132,0,1.653,1.653,0,0,0,1.243-1.11c.076-.192.066-.2.276-.2.468,0,.936,0,1.4,0A.328.328,0,0,0,16,14.376V11.285c-.024-.2-.17-.256-.335-.29-.417-.087-.838-.159-1.256-.244a.361.361,0,0,1-.267-.189c-.35-.645-.721-1.277-1.065-1.925a.619.619,0,0,0-.62-.368c-1.294.013-2.59.006-3.884.005-.2,0-.206-.011-.206-.2,0-.432,0-.863,0-1.3a.287.287,0,0,1,.161-.29c.2-.113.4-.247.605-.357a.539.539,0,0,0,.3-.509c0-.229.01-.458,0-.687a.445.445,0,0,1,.208-.477M11.811.749c0-.088.024-.112.112-.112q1.669,0,3.339,0c.088,0,.114.023.112.112-.006.3-.007.593,0,.889,0,.1-.026.128-.127.128-.551,0-1.1,0-1.654,0s-1.1,0-1.654,0c-.1,0-.13-.025-.128-.128.007-.3.006-.593,0-.889M4.073,1.766c-.552,0-1.1,0-1.654,0s-1.1,0-1.654,0c-.1,0-.13-.025-.128-.128.007-.3.006-.593,0-.889C.636.661.661.637.749.637q1.669,0,3.339,0c.088,0,.114.023.112.112,0,.3-.007.593,0,.889,0,.1-.025.128-.127.128m.745-.19c.015-.275.008-.551,0-.827,0-.088.022-.112.111-.112q3.073,0,6.146,0c.084,0,.117.015.115.108-.006.3-.008.6,0,.906,0,.1-.037.115-.125.114-.6,0-1.206,0-1.809,0H9.231c-.994,0-3.7,0-4.221,0-.156,0-.2-.033-.192-.191m.36,7.55a.274.274,0,0,1,.257-.138c.676,0,1.352,0,2.029,0,.169,0,.183.015.184.191q0,.648,0,1.3c0,.19-.012.2-.2.2H4.17c.331-.52.672-1.035,1.008-1.552M3.694,15.374a1.061,1.061,0,1,1,1.065-1.06,1.071,1.071,0,0,1-1.065,1.06m8.616,0a1.061,1.061,0,1,1,1.061-1.064,1.069,1.069,0,0,1-1.061,1.064m-.622-6.385c0,.558,0,1.395,0,1.614,0,.091-.015.124-.117.123q-.942-.008-1.886,0c-.108,0-.125-.035-.124-.131,0-.22,0-1.045,0-1.607h2.121m-3.327,2.02c0-.063,0-.125,0-.188,0-.551,0-1.1,0-1.654,0-.122.035-.18.168-.18h.411c0,.649,0,1.645,0,1.968,0,.277.113.391.387.391.431,0,.862,0,1.294,0s.873,0,1.309,0c.263,0,.379-.119.38-.383,0-.322,0-1.329,0-1.974a.237.237,0,0,1,.215.141c.106.2.22.4.333.6.256.452.506.909.761,1.362a.6.6,0,0,0,.45.321c.36.059.713.149,1.073.2a.185.185,0,0,1,.183.216c0,.646,0,1.291,0,1.936,0,.17-.015.183-.191.184h-.921c-.2,0-.2,0-.272-.2a1.745,1.745,0,0,0-1.7-1.166,1.7,1.7,0,0,0-1.567,1.166c-.075.2-.075.2-.287.2h-5a1.929,1.929,0,0,0-.138-.384,1.641,1.641,0,0,0-1.515-.984,1.7,1.7,0,0,0-1.682,1.2.213.213,0,0,1-.236.171c-.318-.005-.635,0-.952,0-.17,0-.184-.016-.185-.19q0-.726,0-1.452c0-.2.009-.213.207-.264.816-.209,1.636-.4,2.456-.6a1.223,1.223,0,0,0,.174-.056h3.8c.219,0,.437.006.655,0a.365.365,0,0,0,.387-.381m.381-6.3c-.009.254-.006.51,0,.764a.158.158,0,0,1-.088.163c-.19.106-.377.219-.561.335a.138.138,0,0,1-.169,0q-.277-.173-.561-.336a.148.148,0,0,1-.09-.145c0-.27,0-.541,0-.811,0-.086.032-.105.11-.1.213,0,.426,0,.64,0,.192,0,.385.005.577,0,.1,0,.148.017.144.134m.528-.843a.26.26,0,0,1-.2.089c-.707,0-1.414,0-2.121,0a.206.206,0,0,1-.17-.051c-.494-.5-.991-.993-1.514-1.515.5,0,3.353,0,4.126,0H10.71c.01.057-.038.073-.063.1-.458.461-.919.919-1.377,1.381" fill="#673aaa"/>
      </g>
    </g>
  </g>
</svg>
