<svg xmlns="http://www.w3.org/2000/svg" xmlns:xlink="http://www.w3.org/1999/xlink" width="18" height="18" viewBox="0 0 18 18">
  <defs>
    <clipPath id="clip-path">
      <rect id="Rectangle_387" data-name="Rectangle 387" width="13.543" height="16" fill="#673aaa"/>
    </clipPath>
  </defs>
  <g id="No._of_Owners" data-name="No. of Owners" transform="translate(5022 751)">
    <rect id="Rectangle_813" data-name="Rectangle 813" width="18" height="18" transform="translate(-5022 -751)" fill="none"/>
    <g id="Group_364" data-name="Group 364" transform="translate(-5020 -750)">
      <g id="Group_363" data-name="Group 363" clip-path="url(#clip-path)">
        <path id="Path_473" data-name="Path 473" d="M13.541,12.754a7.087,7.087,0,0,0-.384-2.086,6.68,6.68,0,0,0-1.62-2.553.614.614,0,0,0-1.054.363.693.693,0,0,0,.25.576A5.524,5.524,0,0,1,12.312,12.7a.889.889,0,0,1-.35.786,3.983,3.983,0,0,1-1.225.66,10.867,10.867,0,0,1-3.232.6,12.2,12.2,0,0,1-4.711-.6,3.674,3.674,0,0,1-1.25-.692.825.825,0,0,1-.31-.707,6.27,6.27,0,0,1,.257-1.49A5.406,5.406,0,0,1,2.8,9.069a.664.664,0,0,0,.231-.636.586.586,0,0,0-.44-.462.616.616,0,0,0-.628.19,6.818,6.818,0,0,0-1.954,4.41,2.117,2.117,0,0,0,.916,1.953,5.24,5.24,0,0,0,1.292.7,12.946,12.946,0,0,0,4.5.774,13.618,13.618,0,0,0,4.2-.619,5.205,5.205,0,0,0,1.97-1.077,1.925,1.925,0,0,0,.663-1.55" fill="#673aaa"/>
        <path id="Path_474" data-name="Path 474" d="M6.777,8.613A4.307,4.307,0,1,0,2.468,4.3,4.312,4.312,0,0,0,6.777,8.613M6.759,1.23A3.076,3.076,0,1,1,3.7,4.288,3.08,3.08,0,0,1,6.759,1.23" fill="#673aaa"/>
      </g>
    </g>
  </g>
</svg>
