<svg id="Group_183" data-name="Group 183" xmlns="http://www.w3.org/2000/svg" xmlns:xlink="http://www.w3.org/1999/xlink" width="59.521" height="32" viewBox="0 0 59.521 32">
  <defs>
    <clipPath id="clip-path">
      <rect id="Rectangle_92" data-name="Rectangle 92" width="59.521" height="32" fill="#673aaa"/>
    </clipPath>
  </defs>
  <g id="Group_145" data-name="Group 145" clip-path="url(#clip-path)">
    <path id="Path_278" data-name="Path 278" d="M14.026.059V4.3a14.021,14.021,0,0,1,9.606,4.184,13.1,13.1,0,0,1,3.713,9.488,13.672,13.672,0,0,1-3.978,9.989A13.3,13.3,0,0,1,13.5,32,12.763,12.763,0,0,1,3.89,27.934,14.015,14.015,0,0,1,0,17.856,17.423,17.423,0,0,1,3.8,6.777,19.656,19.656,0,0,1,14.026.059M46.2,0V4.3a14.021,14.021,0,0,1,9.606,4.184,13.1,13.1,0,0,1,3.713,9.488,13.672,13.672,0,0,1-3.978,9.989A13.3,13.3,0,0,1,45.673,32a12.763,12.763,0,0,1-9.606-4.066,14.015,14.015,0,0,1-3.89-10.078,17.428,17.428,0,0,1,3.8-11.079A19.986,19.986,0,0,1,46.2,0" fill="#673aaa"/>
  </g>
</svg>
