<svg xmlns="http://www.w3.org/2000/svg" xmlns:xlink="http://www.w3.org/1999/xlink" width="18" height="18" viewBox="0 0 18 18">
  <defs>
    <clipPath id="clip-path">
      <rect id="Rectangle_392" data-name="Rectangle 392" width="15.473" height="16" fill="#673aaa"/>
    </clipPath>
  </defs>
  <g id="Registration" transform="translate(5022 574)">
    <rect id="Rectangle_817" data-name="Rectangle 817" width="18" height="18" transform="translate(-5022 -574)" fill="none"/>
    <g id="Group_374" data-name="Group 374" transform="translate(-5021 -573)">
      <g id="Group_373" data-name="Group 373" clip-path="url(#clip-path)">
        <path id="Path_487" data-name="Path 487" d="M15.466,13.808c0-.173-.009-.352,0-.527a.114.114,0,0,0-.029-.09.133.133,0,0,0-.1-.026h-.018c-.073,0-.146,0-.218,0-.188,0-.383-.006-.574.007a.188.188,0,0,1-.131-.02c-.021-.02-.03-.063-.03-.145.005-3.586.005-7.233.005-10.759V1.488A1.407,1.407,0,0,0,12.945,0C9.306,0,5.616,0,1.977,0A1.413,1.413,0,0,0,.56,1.42c0,.181,0,.365,0,.544,0,.226,0,.46,0,.689A.191.191,0,0,0,.6,2.8a.2.2,0,0,0,.148.042c.281,0,.566,0,.841,0,.348,0,.708,0,1.062,0q.078,0,.1.018c.012.012.016.043.013.093a5.639,5.639,0,0,0,0,.57c0,.064-.007.075-.086.088A2.917,2.917,0,0,0,.161,5.714,2.922,2.922,0,0,0,1.022,8.9a.246.246,0,0,1,.088.2c0,1.1,0,2.223,0,3.307v.035c0,.012,0,.023,0,.035a.249.249,0,0,0,.038.175l.031.045.039-.039L2.534,11.33l.219-.219v3.365A1.428,1.428,0,0,0,4.272,16h9.734a1.385,1.385,0,0,0,1.43-1.207,5.794,5.794,0,0,0,.03-.984m-.647.52c0,.06,0,.119,0,.179a.782.782,0,0,1-.847.852H5.353a1.886,1.886,0,0,0,.234-1.182c0-.075,0-.151,0-.226,0-.128.011-.151.144-.151,2.851.006,5.782.006,8.961,0,.065,0,.105.007.121.024s.02.052.015.112c-.009.13-.007.262-.005.39m-9.876-.914c.012.377.008.762,0,1.134v.029a.777.777,0,0,1-.779.782.769.769,0,0,1-.772-.772c0-.848,0-1.71,0-2.544v-.92l.066.066,1.462,1.465.026.025.03-.018.039-.023.023-.013v-2.9c0-.07,0-.142-.005-.212a2.4,2.4,0,0,1,.012-.465.566.566,0,0,1,.24-.325,1.334,1.334,0,0,0,.171-.165A3.066,3.066,0,0,0,3.688,3.633c-.15-.029-.233-.045-.264-.082s-.031-.121-.031-.273,0-.3,0-.446c0-.337,0-.685,0-1.027V1.8A1.9,1.9,0,0,0,3.159.641h9.674a.791.791,0,0,1,.89.9v1.74c0,3.193,0,6.495,0,9.743,0,.128-.011.151-.142.151-1.4,0-2.817,0-4.19,0s-2.805,0-4.208-.005h0a.252.252,0,0,0-.194.055.255.255,0,0,0-.048.2m-3.2-2.206,0-.024c0-.493,0-.986,0-1.491v-.3A3.046,3.046,0,0,0,4.386,9.4v1.8l-.27-.27c-.309-.309-.6-.6-.893-.9a.211.211,0,0,0-.149-.084.222.222,0,0,0-.152.088c-.3.306-.607.614-.9.911-.09.09-.181.18-.271.271m1.311-7A2.424,2.424,0,0,1,5.495,6.631,2.428,2.428,0,0,1,3.067,9.052h0A2.429,2.429,0,0,1,.651,6.636a2.424,2.424,0,0,1,2.4-2.429ZM1.2,1.7c0-.093,0-.189,0-.284A.776.776,0,0,1,1.972.642h0a.774.774,0,0,1,.777.764c0,.106,0,.215,0,.319,0,.132,0,.268,0,.4,0,.044-.007.057-.01.06s-.056.01-.071.01c-.166,0-.336,0-.5,0H1.771c-.159,0-.324,0-.486,0-.018,0-.066,0-.078-.011s-.013-.02-.011-.068c.006-.14,0-.282,0-.42" fill="#673aaa"/>
        <path id="Path_488" data-name="Path 488" d="M11.84,3.658h.008a1.143,1.143,0,1,0-.8-1.958,1.143,1.143,0,0,0,.791,1.958m-.347-1.495a.493.493,0,0,1,.355-.15h0a.5.5,0,0,1,.005,1h-.005a.5.5,0,0,1-.358-.854" fill="#673aaa"/>
        <path id="Path_489" data-name="Path 489" d="M7.364,2.286h.783c.436,0,.458-.02.46-.445V1.829a.2.2,0,0,0-.041-.145.2.2,0,0,0-.145-.041c-.442,0-.891,0-1.325,0H5.113c-.414,0-.435.02-.443.421v.018a.218.218,0,0,0,.043.16.218.218,0,0,0,.159.045h0c.83,0,1.674,0,2.49,0" fill="#673aaa"/>
        <path id="Path_490" data-name="Path 490" d="M7.582,5.76c-.415,0-.436.021-.444.423V6.2a.215.215,0,0,0,.042.159.218.218,0,0,0,.159.045h0c.844,0,1.7,0,2.531,0h.742c.437,0,.458-.021.461-.444V5.944a.2.2,0,0,0-.042-.145.2.2,0,0,0-.145-.041c-.446,0-.9,0-1.338,0H7.582Z" fill="#673aaa"/>
        <path id="Path_491" data-name="Path 491" d="M7.339,8.049h0c.83,0,1.675,0,2.491,0h.783c.436,0,.457-.021.46-.444V7.59a.2.2,0,0,0-.042-.146.2.2,0,0,0-.144-.04c-.437,0-.88,0-1.309,0h-2c-.415,0-.436.02-.443.422v.017a.167.167,0,0,0,.2.2" fill="#673aaa"/>
        <path id="Path_492" data-name="Path 492" d="M10.632,9.692c.415,0,.436-.02.444-.422V9.253a.211.211,0,0,0-.043-.159.215.215,0,0,0-.161-.045c-.844,0-1.7,0-2.531,0H7.6c-.436,0-.457.021-.46.444v.013a.2.2,0,0,0,.042.145.188.188,0,0,0,.138.041h.007c.445,0,.9,0,1.336,0h1.971Z" fill="#673aaa"/>
        <path id="Path_493" data-name="Path 493" d="M12.535,11.517c-.446,0-.9,0-1.338,0H9.227c-.414,0-.435.019-.443.42v.019a.215.215,0,0,0,.042.159.218.218,0,0,0,.159.045h0c.83,0,1.674,0,2.49,0h.783c.437,0,.458-.021.46-.445V11.7a.154.154,0,0,0-.186-.186" fill="#673aaa"/>
        <path id="Path_494" data-name="Path 494" d="M7.964,4.115H7.6c-.222,0-.334,0-.4.066s-.064.178-.061.4v.009a.179.179,0,0,0,.041.132.161.161,0,0,0,.116.036h.013c.2-.005.4,0,.59,0h.8c.436,0,.457-.02.46-.443V4.3a.2.2,0,0,0-.042-.146.194.194,0,0,0-.145-.04c-.335,0-.675,0-1,0" fill="#673aaa"/>
        <path id="Path_495" data-name="Path 495" d="M3.079,8.32a1.692,1.692,0,0,0,0-3.383h0A1.692,1.692,0,0,0,3.079,8.32m-1.057-1.7a1.056,1.056,0,0,1,1.057-1.04h.01a1.052,1.052,0,0,1-.02,2.1h0A1.053,1.053,0,0,1,2.022,6.617" fill="#673aaa"/>
      </g>
    </g>
  </g>
</svg>
