<svg xmlns="http://www.w3.org/2000/svg" xmlns:xlink="http://www.w3.org/1999/xlink" width="18" height="18" viewBox="0 0 18 18">
  <defs>
    <clipPath id="clip-path">
      <rect id="Rectangle_388" data-name="Rectangle 388" width="14.393" height="16" fill="#673aaa"/>
    </clipPath>
  </defs>
  <g id="Transmission" transform="translate(5022 709)">
    <rect id="Rectangle_814" data-name="Rectangle 814" width="18" height="18" transform="translate(-5022 -709)" fill="none"/>
    <g id="Group_366" data-name="Group 366" transform="translate(-5020 -708)">
      <g id="Group_365" data-name="Group 365" clip-path="url(#clip-path)">
        <path id="Path_475" data-name="Path 475" d="M14.388,14.266a.768.768,0,0,0-.522-.76,15.9,15.9,0,0,0-3.008-.869,1.429,1.429,0,0,0-.166-.018.488.488,0,0,1-.266-.064.522.522,0,0,1-.069-.286c0-.049-.008-.1-.014-.142a1.272,1.272,0,0,0-.564-.948c-.034-.022-.037-.037-.037-.1,0-.126,0-.252,0-.377,0-.193,0-.385,0-.577a.815.815,0,0,0-.5-.819c-.049-.023-.056-.033-.057-.035s0-.014.018-.061c.51-1.067,1.022-2.154,1.517-3.2l.12-.256c.025-.054.033-.065.1-.059a1.127,1.127,0,0,0,1.167-.635c.439-.895.851-1.784,1.225-2.641A1.422,1.422,0,0,0,12.664.6c-.357-.187-.686-.344-1.007-.481A1.405,1.405,0,0,0,9.831.783C9.4,1.669,9,2.542,8.63,3.376A1.149,1.149,0,0,0,8.878,4.7c.063.067.061.092.024.17Q8.293,6.146,7.691,7.427l-.327.692a.611.611,0,0,1-.105.185.624.624,0,0,1-.2-.08.819.819,0,0,0-1.113.195l-.24.248c-.261.268-.523.537-.782.807a.193.193,0,0,1-.17.078,1.172,1.172,0,0,0-1.154.713c-.125.255-.252.508-.378.762-.188.378-.376.756-.56,1.136-.034.07-.036.069-.118.038a8.957,8.957,0,0,1-1.405-.7.779.779,0,0,0-.357-.141.684.684,0,0,0-.524.175A.822.822,0,0,0,0,12.144C0,13.121,0,14.151,0,15.2a.746.746,0,0,0,.806.8H13.584a.743.743,0,0,0,.8-.775c.006-.293.006-.607,0-.959M.715,12.17c0-.057,0-.078.021-.093.009,0,.033.021.046.032a.346.346,0,0,0,.051.039,8.439,8.439,0,0,0,3.289,1.189,7.629,7.629,0,0,0,2.171-.044,13.814,13.814,0,0,1,7.275.859c.085.034.111.07.11.151,0,.271-.006.56,0,.851a.16.16,0,0,1-.022.111.179.179,0,0,1-.119.026q-2.721-.008-5.443,0H5.925q-2.526,0-5.052.005a.2.2,0,0,1-.134-.028.2.2,0,0,1-.027-.127c0-.673,0-1.347,0-2.021v-.9c0-.015,0-.031,0-.047m8.942.279a.833.833,0,0,1-.251,0c-.174-.009-.348-.02-.521-.03l-.151-.01a17.63,17.63,0,0,0-2.619.184l-.175.021a6.833,6.833,0,0,1-2.6-.158l-.032-.01a.321.321,0,0,1,.017-.036h0c.166-.329.33-.66.494-.99q.213-.428.427-.855a.48.48,0,0,1,.643-.275l2.147.695,2.195.71a.565.565,0,0,1,.4.5.862.862,0,0,1,.026.249M9.528,5.2c.028-.06.04-.071.044-.073s.015,0,.066.027a5.244,5.244,0,0,0,.484.234l.064.027.025.012a.152.152,0,0,1-.012.031Q9.637,6.644,9.075,7.831L8.561,8.916a.233.233,0,0,0-.011.028l-.005.012-.415-.2a.637.637,0,0,1-.2-.119.6.6,0,0,1,.079-.211l.3-.626q.613-1.3,1.223-2.6M9.3,3.616h0C9.64,2.875,10.043,2,10.45,1.138a.7.7,0,0,1,.636-.424.8.8,0,0,1,.336.077c.332.152.622.291.888.425a.714.714,0,0,1,.414.659.791.791,0,0,1-.09.374q-.306.656-.61,1.312l-.5,1.07a.587.587,0,0,1-.308.331.579.579,0,0,1-.444-.057q-.6-.285-1.208-.576A.5.5,0,0,1,9.3,3.616M9.03,10.884l-.008,0c-1.125-.367-2.25-.731-3.405-1.1l.057-.058c.293-.3.572-.589.85-.878.034-.034.07-.048.141-.013Q7.8,9.389,8.944,9.946a.138.138,0,0,1,.087.143c0,.261,0,.52,0,.781v.014" fill="#673aaa"/>
      </g>
    </g>
  </g>
</svg>
