<svg xmlns="http://www.w3.org/2000/svg" xmlns:xlink="http://www.w3.org/1999/xlink" width="18" height="18" viewBox="0 0 18 18">
  <defs>
    <clipPath id="clip-path">
      <rect id="Rectangle_385" data-name="Rectangle 385" width="15.999" height="16" fill="#673aaa"/>
    </clipPath>
  </defs>
  <g id="Trim" transform="translate(5022 840)">
    <rect id="Rectangle_811" data-name="Rectangle 811" width="18" height="18" transform="translate(-5022 -840)" fill="none"/>
    <g id="Group_360" data-name="Group 360" transform="translate(-5021 -839)">
      <g id="Group_359" data-name="Group 359" clip-path="url(#clip-path)">
        <path id="Path_459" data-name="Path 459" d="M15.847,6.328a7.911,7.911,0,0,0-2.694-4.456A7.637,7.637,0,0,0,7.973,0a.466.466,0,0,0-.489.462,2.952,2.952,0,0,0,0,.312c0,.1-.043.143-.14.137a3.3,3.3,0,0,0-.59.039A7.608,7.608,0,0,0,.164,6.732,7.726,7.726,0,0,0,0,7.853V9.1c.038.23.031.464.074.693a7.629,7.629,0,0,0,1.964,3.882,7.523,7.523,0,0,0,1.734,1.361,7.709,7.709,0,0,0,2.007.8A7.682,7.682,0,0,0,6.9,16H8.085a.05.05,0,0,1,.025-.013.191.191,0,0,1,.048,0,5.011,5.011,0,0,0,1.321-.2,7.493,7.493,0,0,0,3.821-2.46,7.321,7.321,0,0,0,1.429-2.646,7.818,7.818,0,0,0,.327-2.008c0-.106.039-.153.147-.149s.219.005.328,0A.462.462,0,0,0,16,8.063a7.277,7.277,0,0,0-.151-1.735M14.066,7.54c-.276,0-.552,0-.828,0-.087,0-.122-.015-.132-.114a5.093,5.093,0,0,0-1.389-2.981A5.05,5.05,0,0,0,8.585,2.866c-.1-.012-.128-.034-.128-.136q.008-.82,0-1.639c0-.1.021-.119.121-.11a7.085,7.085,0,0,1,5.8,4.036,6.907,6.907,0,0,1,.644,2.423c.009.085-.014.1-.1.1-.287,0-.572,0-.858,0M4.193,14.145a6.379,6.379,0,0,1-3.042-4.03,6.307,6.307,0,0,1,.728-5.007A6.5,6.5,0,0,1,6.186,2.027a6.591,6.591,0,0,1,1.221-.138c.1,0,.122.027.118.121-.007.213,0,.426,0,.639s0,.406,0,.609a.469.469,0,0,0,.493.505,4.233,4.233,0,0,1,4.13,3.567A5.529,5.529,0,0,1,12.207,8a.464.464,0,0,0,.487.477c.417.005.832.005,1.249,0,.1,0,.14.018.137.133a6.52,6.52,0,0,1-.917,3.211,6.411,6.411,0,0,1-3.6,2.913,6.316,6.316,0,0,1-5.368-.585" fill="#673aaa"/>
        <path id="Path_460" data-name="Path 460" d="M11.268,8.5a3.745,3.745,0,1,0-3.775,3.724A3.773,3.773,0,0,0,11.268,8.5m-6.554-.02a2.809,2.809,0,1,1,2.807,2.808A2.835,2.835,0,0,1,4.714,8.478" fill="#673aaa"/>
        <path id="Path_461" data-name="Path 461" d="M2.382,8.009a.467.467,0,1,0,.458.473.473.473,0,0,0-.458-.473" fill="#673aaa"/>
        <path id="Path_462" data-name="Path 462" d="M7.525,13.16a.468.468,0,1,0,.466.465.472.472,0,0,0-.466-.465" fill="#673aaa"/>
        <path id="Path_463" data-name="Path 463" d="M3.889,5.268A.46.46,0,0,0,4.346,4.8a.466.466,0,0,0-.464-.465.476.476,0,0,0-.469.464.467.467,0,0,0,.476.469" fill="#673aaa"/>
        <path id="Path_464" data-name="Path 464" d="M3.877,11.654a.467.467,0,0,0-.465.465.475.475,0,0,0,.465.468.467.467,0,0,0,.469-.477.461.461,0,0,0-.469-.456" fill="#673aaa"/>
        <path id="Path_465" data-name="Path 465" d="M10.7,12.122a.466.466,0,0,0,.463.466.475.475,0,0,0,.469-.464.464.464,0,0,0-.475-.469.458.458,0,0,0-.457.467" fill="#673aaa"/>
        <path id="Path_466" data-name="Path 466" d="M9.4,8.47a1.873,1.873,0,1,0-1.87,1.879A1.878,1.878,0,0,0,9.4,8.47m-2.808,0a.936.936,0,1,1,.943.94.944.944,0,0,1-.943-.94" fill="#673aaa"/>
      </g>
    </g>
  </g>
</svg>
